<?xml version="1.0" encoding="UTF-8"?>
<svg xmlns="http://www.w3.org/2000/svg" viewBox="0 0 64 64" role="img" aria-label="Scissors pixel icon (rotated)">
  <title>Scissors pixel icon (rotated)</title>
  <style>
    :root{
      --c0: #130e0c;
      --c1: #a30f07;
      --c2: #4b2068;
      --c3: #d63106;
      --c4: #495577;
      --c5: #61638a;
      --c6: #ed7506;
      --c7: #fa9f0b;
      --c8: #f8c50e;
      --c9: #a29abc;
      --c10: #ada5c8;
      --c11: #fbdf98;
      --c12: #faf5e8;
    }
    rect{ shape-rendering: crispEdges; }
  </style>
  <!-- Transparent background -->
  <g>
    <rect x="12" y="16" width="11" height="1" fill="var(--c0)"/>
    <rect x="11" y="17" width="1" height="1" fill="var(--c0)"/>
    <rect x="12" y="17" width="10" height="1" fill="var(--c6)"/>
    <rect x="22" y="17" width="1" height="1" fill="var(--c8)"/>
    <rect x="24" y="17" width="1" height="1" fill="var(--c0)"/>
    <rect x="10" y="18" width="1" height="1" fill="var(--c0)"/>
    <rect x="11" y="18" width="2" height="1" fill="var(--c7)"/>
    <rect x="13" y="18" width="9" height="1" fill="var(--c12)"/>
    <rect x="24" y="18" width="1" height="1" fill="var(--c8)"/>
    <rect x="25" y="18" width="1" height="1" fill="var(--c0)"/>
    <rect x="9" y="19" width="1" height="1" fill="var(--c0)"/>
    <rect x="10" y="19" width="1" height="1" fill="var(--c6)"/>
    <rect x="11" y="19" width="1" height="1" fill="var(--c7)"/>
    <rect x="12" y="19" width="1" height="1" fill="var(--c12)"/>
    <rect x="13" y="19" width="1" height="1" fill="var(--c7)"/>
    <rect x="14" y="19" width="4" height="1" fill="var(--c6)"/>
    <rect x="18" y="19" width="4" height="1" fill="var(--c3)"/>
    <rect x="22" y="19" width="1" height="1" fill="var(--c6)"/>
    <rect x="23" y="19" width="1" height="1" fill="var(--c12)"/>
    <rect x="24" y="19" width="2" height="1" fill="var(--c8)"/>
    <rect x="26" y="19" width="1" height="1" fill="var(--c0)"/>
    <rect x="8" y="20" width="1" height="1" fill="var(--c0)"/>
    <rect x="9" y="20" width="2" height="1" fill="var(--c7)"/>
    <rect x="11" y="20" width="1" height="1" fill="var(--c12)"/>
    <rect x="12" y="20" width="2" height="1" fill="var(--c7)"/>
    <rect x="14" y="20" width="5" height="1" fill="var(--c0)"/>
    <rect x="19" y="20" width="4" height="1" fill="var(--c1)"/>
    <rect x="23" y="20" width="1" height="1" fill="var(--c3)"/>
    <rect x="24" y="20" width="1" height="1" fill="var(--c12)"/>
    <rect x="25" y="20" width="1" height="1" fill="var(--c8)"/>
    <rect x="8" y="21" width="1" height="1" fill="var(--c0)"/>
    <rect x="9" y="21" width="1" height="1" fill="var(--c7)"/>
    <rect x="10" y="21" width="1" height="1" fill="var(--c12)"/>
    <rect x="12" y="21" width="1" height="1" fill="var(--c8)"/>
    <rect x="13" y="21" width="9" height="1" fill="var(--c0)"/>
    <rect x="23" y="21" width="1" height="1" fill="var(--c1)"/>
    <rect x="24" y="21" width="1" height="1" fill="var(--c3)"/>
    <rect x="25" y="21" width="1" height="1" fill="var(--c12)"/>
    <rect x="27" y="21" width="1" height="1" fill="var(--c0)"/>
    <rect x="7" y="22" width="2" height="1" fill="var(--c0)"/>
    <rect x="9" y="22" width="1" height="1" fill="var(--c8)"/>
    <rect x="10" y="22" width="1" height="1" fill="var(--c12)"/>
    <rect x="11" y="22" width="1" height="1" fill="var(--c8)"/>
    <rect x="12" y="22" width="1" height="1" fill="var(--c0)"/>
    <rect x="22" y="22" width="2" height="1" fill="var(--c0)"/>
    <rect x="24" y="22" width="2" height="1" fill="var(--c1)"/>
    <rect x="26" y="22" width="1" height="1" fill="var(--c12)"/>
    <rect x="27" y="22" width="1" height="1" fill="var(--c8)"/>
    <rect x="28" y="22" width="1" height="1" fill="var(--c0)"/>
    <rect x="7" y="23" width="2" height="1" fill="var(--c0)"/>
    <rect x="9" y="23" width="1" height="1" fill="var(--c6)"/>
    <rect x="10" y="23" width="1" height="1" fill="var(--c12)"/>
    <rect x="11" y="23" width="1" height="1" fill="var(--c6)"/>
    <rect x="12" y="23" width="1" height="1" fill="var(--c0)"/>
    <rect x="24" y="23" width="1" height="1" fill="var(--c0)"/>
    <rect x="25" y="23" width="1" height="1" fill="var(--c3)"/>
    <rect x="26" y="23" width="1" height="1" fill="var(--c12)"/>
    <rect x="27" y="23" width="1" height="1" fill="var(--c8)"/>
    <rect x="28" y="23" width="1" height="1" fill="var(--c0)"/>
    <rect x="6" y="24" width="1" height="1" fill="var(--c0)"/>
    <rect x="7" y="24" width="1" height="1" fill="var(--c7)"/>
    <rect x="10" y="24" width="1" height="1" fill="var(--c11)"/>
    <rect x="11" y="24" width="1" height="1" fill="var(--c12)"/>
    <rect x="12" y="24" width="1" height="1" fill="var(--c0)"/>
    <rect x="24" y="24" width="1" height="1" fill="var(--c0)"/>
    <rect x="25" y="24" width="1" height="1" fill="var(--c3)"/>
    <rect x="26" y="24" width="1" height="1" fill="var(--c12)"/>
    <rect x="27" y="24" width="1" height="1" fill="var(--c8)"/>
    <rect x="28" y="24" width="1" height="1" fill="var(--c0)"/>
    <rect x="6" y="25" width="1" height="1" fill="var(--c0)"/>
    <rect x="7" y="25" width="2" height="1" fill="var(--c6)"/>
    <rect x="9" y="25" width="1" height="1" fill="var(--c7)"/>
    <rect x="10" y="25" width="1" height="1" fill="var(--c3)"/>
    <rect x="11" y="25" width="1" height="1" fill="var(--c12)"/>
    <rect x="12" y="25" width="1" height="1" fill="var(--c8)"/>
    <rect x="13" y="25" width="12" height="1" fill="var(--c0)"/>
    <rect x="25" y="25" width="1" height="1" fill="var(--c6)"/>
    <rect x="26" y="25" width="1" height="1" fill="var(--c12)"/>
    <rect x="27" y="25" width="1" height="1" fill="var(--c8)"/>
    <rect x="28" y="25" width="4" height="1" fill="var(--c0)"/>
    <rect x="35" y="25" width="16" height="1" fill="var(--c0)"/>
    <rect x="7" y="26" width="1" height="1" fill="var(--c0)"/>
    <rect x="8" y="26" width="1" height="1" fill="var(--c6)"/>
    <rect x="9" y="26" width="1" height="1" fill="var(--c7)"/>
    <rect x="10" y="26" width="2" height="1" fill="var(--c6)"/>
    <rect x="12" y="26" width="1" height="1" fill="var(--c12)"/>
    <rect x="13" y="26" width="12" height="1" fill="var(--c7)"/>
    <rect x="25" y="26" width="1" height="1" fill="var(--c6)"/>
    <rect x="26" y="26" width="1" height="1" fill="var(--c12)"/>
    <rect x="27" y="26" width="1" height="1" fill="var(--c8)"/>
    <rect x="28" y="26" width="1" height="1" fill="var(--c0)"/>
    <rect x="29" y="26" width="2" height="1" fill="var(--c12)"/>
    <rect x="31" y="26" width="1" height="1" fill="var(--c0)"/>
    <rect x="34" y="26" width="1" height="1" fill="var(--c0)"/>
    <rect x="35" y="26" width="4" height="1" fill="var(--c12)"/>
    <rect x="39" y="26" width="11" height="1" fill="var(--c9)"/>
    <rect x="50" y="26" width="1" height="1" fill="var(--c10)"/>
    <rect x="51" y="26" width="3" height="1" fill="var(--c0)"/>
    <rect x="8" y="27" width="1" height="1" fill="var(--c0)"/>
    <rect x="9" y="27" width="3" height="1" fill="var(--c7)"/>
    <rect x="12" y="27" width="1" height="1" fill="var(--c3)"/>
    <rect x="13" y="27" width="2" height="1" fill="var(--c12)"/>
    <rect x="15" y="27" width="1" height="1" fill="var(--c11)"/>
    <rect x="16" y="27" width="11" height="1" fill="var(--c12)"/>
    <rect x="27" y="27" width="1" height="1" fill="var(--c8)"/>
    <rect x="28" y="27" width="1" height="1" fill="var(--c0)"/>
    <rect x="29" y="27" width="3" height="1" fill="var(--c12)"/>
    <rect x="32" y="27" width="2" height="1" fill="var(--c0)"/>
    <rect x="34" y="27" width="4" height="1" fill="var(--c12)"/>
    <rect x="38" y="27" width="10" height="1" fill="var(--c9)"/>
    <rect x="48" y="27" width="6" height="1" fill="var(--c12)"/>
    <rect x="54" y="27" width="2" height="1" fill="var(--c0)"/>
    <rect x="8" y="28" width="1" height="1" fill="var(--c0)"/>
    <rect x="9" y="28" width="1" height="1" fill="var(--c6)"/>
    <rect x="10" y="28" width="1" height="1" fill="var(--c3)"/>
    <rect x="11" y="28" width="1" height="1" fill="var(--c7)"/>
    <rect x="12" y="28" width="2" height="1" fill="var(--c6)"/>
    <rect x="14" y="28" width="12" height="1" fill="var(--c7)"/>
    <rect x="26" y="28" width="1" height="1" fill="var(--c12)"/>
    <rect x="27" y="28" width="1" height="1" fill="var(--c8)"/>
    <rect x="28" y="28" width="1" height="1" fill="var(--c0)"/>
    <rect x="29" y="28" width="3" height="1" fill="var(--c9)"/>
    <rect x="32" y="28" width="1" height="1" fill="var(--c5)"/>
    <rect x="34" y="28" width="3" height="1" fill="var(--c12)"/>
    <rect x="37" y="28" width="11" height="1" fill="var(--c9)"/>
    <rect x="48" y="28" width="8" height="1" fill="var(--c12)"/>
    <rect x="56" y="28" width="2" height="1" fill="var(--c0)"/>
    <rect x="9" y="29" width="1" height="1" fill="var(--c0)"/>
    <rect x="10" y="29" width="1" height="1" fill="var(--c6)"/>
    <rect x="11" y="29" width="3" height="1" fill="var(--c7)"/>
    <rect x="14" y="29" width="11" height="1" fill="var(--c3)"/>
    <rect x="25" y="29" width="2" height="1" fill="var(--c6)"/>
    <rect x="27" y="29" width="2" height="1" fill="var(--c0)"/>
    <rect x="29" y="29" width="4" height="1" fill="var(--c12)"/>
    <rect x="33" y="29" width="1" height="1" fill="var(--c5)"/>
    <rect x="34" y="29" width="3" height="1" fill="var(--c12)"/>
    <rect x="37" y="29" width="10" height="1" fill="var(--c9)"/>
    <rect x="47" y="29" width="1" height="1" fill="var(--c12)"/>
    <rect x="48" y="29" width="7" height="1" fill="var(--c10)"/>
    <rect x="55" y="29" width="3" height="1" fill="var(--c12)"/>
    <rect x="58" y="29" width="1" height="1" fill="var(--c0)"/>
    <rect x="10" y="30" width="18" height="1" fill="var(--c0)"/>
    <rect x="29" y="30" width="2" height="1" fill="var(--c5)"/>
    <rect x="31" y="30" width="1" height="1" fill="var(--c4)"/>
    <rect x="32" y="30" width="1" height="1" fill="var(--c12)"/>
    <rect x="34" y="30" width="3" height="1" fill="var(--c12)"/>
    <rect x="37" y="30" width="10" height="1" fill="var(--c9)"/>
    <rect x="47" y="30" width="1" height="1" fill="var(--c12)"/>
    <rect x="48" y="30" width="8" height="1" fill="var(--c10)"/>
    <rect x="56" y="30" width="2" height="1" fill="var(--c9)"/>
    <rect x="58" y="30" width="1" height="1" fill="var(--c10)"/>
    <rect x="59" y="30" width="1" height="1" fill="var(--c0)"/>
    <rect x="27" y="31" width="1" height="1" fill="var(--c0)"/>
    <rect x="29" y="31" width="2" height="1" fill="var(--c0)"/>
    <rect x="31" y="31" width="1" height="1" fill="var(--c5)"/>
    <rect x="32" y="31" width="1" height="1" fill="var(--c4)"/>
    <rect x="33" y="31" width="2" height="1" fill="var(--c0)"/>
    <rect x="35" y="31" width="24" height="1" fill="var(--c12)"/>
    <rect x="59" y="31" width="1" height="1" fill="var(--c0)"/>
    <rect x="10" y="32" width="18" height="1" fill="var(--c0)"/>
    <rect x="28" y="32" width="4" height="1" fill="var(--c5)"/>
    <rect x="32" y="32" width="1" height="1" fill="var(--c4)"/>
    <rect x="33" y="32" width="1" height="1" fill="var(--c0)"/>
    <rect x="34" y="32" width="1" height="1" fill="var(--c5)"/>
    <rect x="35" y="32" width="3" height="1" fill="var(--c2)"/>
    <rect x="38" y="32" width="5" height="1" fill="var(--c4)"/>
    <rect x="43" y="32" width="4" height="1" fill="var(--c0)"/>
    <rect x="47" y="32" width="2" height="1" fill="var(--c4)"/>
    <rect x="49" y="32" width="9" height="1" fill="var(--c2)"/>
    <rect x="58" y="32" width="1" height="1" fill="var(--c5)"/>
    <rect x="59" y="32" width="1" height="1" fill="var(--c0)"/>
    <rect x="9" y="33" width="1" height="1" fill="var(--c0)"/>
    <rect x="10" y="33" width="5" height="1" fill="var(--c8)"/>
    <rect x="15" y="33" width="12" height="1" fill="var(--c7)"/>
    <rect x="27" y="33" width="2" height="1" fill="var(--c0)"/>
    <rect x="29" y="33" width="1" height="1" fill="var(--c2)"/>
    <rect x="30" y="33" width="3" height="1" fill="var(--c0)"/>
    <rect x="33" y="33" width="2" height="1" fill="var(--c4)"/>
    <rect x="35" y="33" width="3" height="1" fill="var(--c2)"/>
    <rect x="39" y="33" width="4" height="1" fill="var(--c4)"/>
    <rect x="43" y="33" width="1" height="1" fill="var(--c5)"/>
    <rect x="44" y="33" width="6" height="1" fill="var(--c4)"/>
    <rect x="50" y="33" width="8" height="1" fill="var(--c2)"/>
    <rect x="58" y="33" width="1" height="1" fill="var(--c0)"/>
    <rect x="8" y="34" width="1" height="1" fill="var(--c0)"/>
    <rect x="9" y="34" width="1" height="1" fill="var(--c11)"/>
    <rect x="10" y="34" width="5" height="1" fill="var(--c12)"/>
    <rect x="15" y="34" width="10" height="1" fill="var(--c11)"/>
    <rect x="25" y="34" width="2" height="1" fill="var(--c12)"/>
    <rect x="27" y="34" width="1" height="1" fill="var(--c8)"/>
    <rect x="28" y="34" width="1" height="1" fill="var(--c0)"/>
    <rect x="29" y="34" width="1" height="1" fill="var(--c2)"/>
    <rect x="30" y="34" width="2" height="1" fill="var(--c5)"/>
    <rect x="32" y="34" width="3" height="1" fill="var(--c4)"/>
    <rect x="35" y="34" width="4" height="1" fill="var(--c2)"/>
    <rect x="39" y="34" width="5" height="1" fill="var(--c4)"/>
    <rect x="44" y="34" width="1" height="1" fill="var(--c10)"/>
    <rect x="45" y="34" width="6" height="1" fill="var(--c4)"/>
    <rect x="51" y="34" width="4" height="1" fill="var(--c2)"/>
    <rect x="56" y="34" width="2" height="1" fill="var(--c0)"/>
    <rect x="7" y="35" width="1" height="1" fill="var(--c0)"/>
    <rect x="8" y="35" width="2" height="1" fill="var(--c8)"/>
    <rect x="10" y="35" width="3" height="1" fill="var(--c12)"/>
    <rect x="13" y="35" width="12" height="1" fill="var(--c7)"/>
    <rect x="25" y="35" width="1" height="1" fill="var(--c6)"/>
    <rect x="26" y="35" width="1" height="1" fill="var(--c12)"/>
    <rect x="27" y="35" width="1" height="1" fill="var(--c8)"/>
    <rect x="28" y="35" width="1" height="1" fill="var(--c0)"/>
    <rect x="30" y="35" width="1" height="1" fill="var(--c4)"/>
    <rect x="31" y="35" width="4" height="1" fill="var(--c0)"/>
    <rect x="35" y="35" width="5" height="1" fill="var(--c2)"/>
    <rect x="40" y="35" width="4" height="1" fill="var(--c4)"/>
    <rect x="44" y="35" width="1" height="1" fill="var(--c12)"/>
    <rect x="45" y="35" width="1" height="1" fill="var(--c5)"/>
    <rect x="46" y="35" width="6" height="1" fill="var(--c4)"/>
    <rect x="52" y="35" width="2" height="1" fill="var(--c5)"/>
    <rect x="54" y="35" width="2" height="1" fill="var(--c0)"/>
    <rect x="6" y="36" width="1" height="1" fill="var(--c0)"/>
    <rect x="7" y="36" width="1" height="1" fill="var(--c11)"/>
    <rect x="8" y="36" width="2" height="1" fill="var(--c8)"/>
    <rect x="10" y="36" width="1" height="1" fill="var(--c12)"/>
    <rect x="11" y="36" width="1" height="1" fill="var(--c8)"/>
    <rect x="13" y="36" width="1" height="1" fill="var(--c7)"/>
    <rect x="14" y="36" width="7" height="1" fill="var(--c1)"/>
    <rect x="21" y="36" width="2" height="1" fill="var(--c3)"/>
    <rect x="23" y="36" width="1" height="1" fill="var(--c1)"/>
    <rect x="24" y="36" width="1" height="1" fill="var(--c3)"/>
    <rect x="25" y="36" width="1" height="1" fill="var(--c6)"/>
    <rect x="26" y="36" width="1" height="1" fill="var(--c12)"/>
    <rect x="27" y="36" width="1" height="1" fill="var(--c8)"/>
    <rect x="28" y="36" width="1" height="1" fill="var(--c0)"/>
    <rect x="29" y="36" width="1" height="1" fill="var(--c2)"/>
    <rect x="30" y="36" width="1" height="1" fill="var(--c4)"/>
    <rect x="31" y="36" width="1" height="1" fill="var(--c0)"/>
    <rect x="34" y="36" width="1" height="1" fill="var(--c0)"/>
    <rect x="35" y="36" width="6" height="1" fill="var(--c2)"/>
    <rect x="41" y="36" width="10" height="1" fill="var(--c4)"/>
    <rect x="51" y="36" width="3" height="1" fill="var(--c0)"/>
    <rect x="6" y="37" width="1" height="1" fill="var(--c0)"/>
    <rect x="7" y="37" width="4" height="1" fill="var(--c12)"/>
    <rect x="11" y="37" width="2" height="1" fill="var(--c11)"/>
    <rect x="13" y="37" width="12" height="1" fill="var(--c0)"/>
    <rect x="25" y="37" width="1" height="1" fill="var(--c6)"/>
    <rect x="26" y="37" width="1" height="1" fill="var(--c12)"/>
    <rect x="27" y="37" width="1" height="1" fill="var(--c8)"/>
    <rect x="28" y="37" width="4" height="1" fill="var(--c0)"/>
    <rect x="35" y="37" width="16" height="1" fill="var(--c0)"/>
    <rect x="6" y="38" width="1" height="1" fill="var(--c0)"/>
    <rect x="7" y="38" width="1" height="1" fill="var(--c7)"/>
    <rect x="8" y="38" width="3" height="1" fill="var(--c6)"/>
    <rect x="11" y="38" width="1" height="1" fill="var(--c7)"/>
    <rect x="12" y="38" width="1" height="1" fill="var(--c0)"/>
    <rect x="24" y="38" width="1" height="1" fill="var(--c0)"/>
    <rect x="25" y="38" width="1" height="1" fill="var(--c6)"/>
    <rect x="26" y="38" width="1" height="1" fill="var(--c12)"/>
    <rect x="27" y="38" width="1" height="1" fill="var(--c8)"/>
    <rect x="28" y="38" width="1" height="1" fill="var(--c0)"/>
    <rect x="7" y="39" width="1" height="1" fill="var(--c0)"/>
    <rect x="8" y="39" width="1" height="1" fill="var(--c7)"/>
    <rect x="9" y="39" width="1" height="1" fill="var(--c1)"/>
    <rect x="10" y="39" width="1" height="1" fill="var(--c6)"/>
    <rect x="11" y="39" width="1" height="1" fill="var(--c1)"/>
    <rect x="22" y="39" width="3" height="1" fill="var(--c0)"/>
    <rect x="25" y="39" width="1" height="1" fill="var(--c6)"/>
    <rect x="26" y="39" width="1" height="1" fill="var(--c12)"/>
    <rect x="27" y="39" width="1" height="1" fill="var(--c8)"/>
    <rect x="28" y="39" width="1" height="1" fill="var(--c0)"/>
    <rect x="7" y="40" width="1" height="1" fill="var(--c0)"/>
    <rect x="8" y="40" width="1" height="1" fill="var(--c6)"/>
    <rect x="9" y="40" width="1" height="1" fill="var(--c7)"/>
    <rect x="10" y="40" width="1" height="1" fill="var(--c8)"/>
    <rect x="11" y="40" width="1" height="1" fill="var(--c3)"/>
    <rect x="12" y="40" width="1" height="1" fill="var(--c1)"/>
    <rect x="13" y="40" width="9" height="1" fill="var(--c0)"/>
    <rect x="22" y="40" width="2" height="1" fill="var(--c1)"/>
    <rect x="24" y="40" width="1" height="1" fill="var(--c3)"/>
    <rect x="25" y="40" width="1" height="1" fill="var(--c6)"/>
    <rect x="26" y="40" width="1" height="1" fill="var(--c12)"/>
    <rect x="27" y="40" width="1" height="1" fill="var(--c8)"/>
    <rect x="28" y="40" width="1" height="1" fill="var(--c0)"/>
    <rect x="8" y="41" width="1" height="1" fill="var(--c0)"/>
    <rect x="9" y="41" width="1" height="1" fill="var(--c7)"/>
    <rect x="10" y="41" width="1" height="1" fill="var(--c6)"/>
    <rect x="11" y="41" width="1" height="1" fill="var(--c12)"/>
    <rect x="12" y="41" width="1" height="1" fill="var(--c3)"/>
    <rect x="13" y="41" width="1" height="1" fill="var(--c1)"/>
    <rect x="14" y="41" width="5" height="1" fill="var(--c0)"/>
    <rect x="22" y="41" width="2" height="1" fill="var(--c1)"/>
    <rect x="24" y="41" width="1" height="1" fill="var(--c12)"/>
    <rect x="26" y="41" width="1" height="1" fill="var(--c7)"/>
    <rect x="27" y="41" width="1" height="1" fill="var(--c0)"/>
    <rect x="8" y="42" width="1" height="1" fill="var(--c0)"/>
    <rect x="10" y="42" width="1" height="1" fill="var(--c6)"/>
    <rect x="11" y="42" width="1" height="1" fill="var(--c3)"/>
    <rect x="12" y="42" width="1" height="1" fill="var(--c12)"/>
    <rect x="13" y="42" width="1" height="1" fill="var(--c3)"/>
    <rect x="14" y="42" width="9" height="1" fill="var(--c1)"/>
    <rect x="23" y="42" width="1" height="1" fill="var(--c12)"/>
    <rect x="24" y="42" width="1" height="1" fill="var(--c8)"/>
    <rect x="25" y="42" width="1" height="1" fill="var(--c6)"/>
    <rect x="26" y="42" width="1" height="1" fill="var(--c0)"/>
    <rect x="9" y="43" width="1" height="1" fill="var(--c0)"/>
    <rect x="10" y="43" width="1" height="1" fill="var(--c6)"/>
    <rect x="11" y="43" width="1" height="1" fill="var(--c7)"/>
    <rect x="12" y="43" width="1" height="1" fill="var(--c6)"/>
    <rect x="13" y="43" width="9" height="1" fill="var(--c12)"/>
    <rect x="22" y="43" width="1" height="1" fill="var(--c11)"/>
    <rect x="23" y="43" width="2" height="1" fill="var(--c8)"/>
    <rect x="25" y="43" width="1" height="1" fill="var(--c0)"/>
    <rect x="10" y="44" width="1" height="1" fill="var(--c0)"/>
    <rect x="11" y="44" width="1" height="1" fill="var(--c6)"/>
    <rect x="12" y="44" width="10" height="1" fill="var(--c7)"/>
    <rect x="22" y="44" width="1" height="1" fill="var(--c8)"/>
    <rect x="23" y="44" width="2" height="1" fill="var(--c0)"/>
    <rect x="11" y="45" width="12" height="1" fill="var(--c0)"/>
  </g>
</svg>